<mxfile host="app.diagrams.net" agent="Mozilla/5.0 (Windows NT 10.0; Win64; x64) AppleWebKit/537.36 (KHTML, like Gecko) Chrome/132.0.0.0 Safari/537.36 Edg/132.0.0.0" version="26.0.10">
  <diagram id="C5RBs43oDa-KdzZeNtuy" name="Page-1">
    <mxGraphModel dx="742" dy="601" grid="1" gridSize="10" guides="1" tooltips="1" connect="1" arrows="1" fold="1" page="1" pageScale="1" pageWidth="827" pageHeight="1169" math="0" shadow="0">
      <root>
        <mxCell id="WIyWlLk6GJQsqaUBKTNV-0" />
        <mxCell id="WIyWlLk6GJQsqaUBKTNV-1" parent="WIyWlLk6GJQsqaUBKTNV-0" />
        <mxCell id="WIyWlLk6GJQsqaUBKTNV-2" value="" style="rounded=0;html=1;jettySize=auto;orthogonalLoop=1;fontSize=11;endArrow=block;endFill=0;endSize=8;strokeWidth=1;shadow=0;labelBackgroundColor=none;edgeStyle=orthogonalEdgeStyle;entryX=0.5;entryY=0;entryDx=0;entryDy=0;" parent="WIyWlLk6GJQsqaUBKTNV-1" source="WIyWlLk6GJQsqaUBKTNV-3" target="TNLpFWwESsY1as0Zczxs-2" edge="1">
          <mxGeometry relative="1" as="geometry">
            <mxPoint x="330" y="120" as="targetPoint" />
          </mxGeometry>
        </mxCell>
        <mxCell id="WIyWlLk6GJQsqaUBKTNV-3" value="visitor" style="rounded=1;whiteSpace=wrap;html=1;fontSize=12;glass=0;strokeWidth=1;shadow=0;" parent="WIyWlLk6GJQsqaUBKTNV-1" vertex="1">
          <mxGeometry x="160" y="20" width="120" height="40" as="geometry" />
        </mxCell>
        <mxCell id="TNLpFWwESsY1as0Zczxs-8" value="NO" style="edgeStyle=orthogonalEdgeStyle;rounded=0;orthogonalLoop=1;jettySize=auto;html=1;" edge="1" parent="WIyWlLk6GJQsqaUBKTNV-1" source="TNLpFWwESsY1as0Zczxs-2" target="TNLpFWwESsY1as0Zczxs-5">
          <mxGeometry relative="1" as="geometry" />
        </mxCell>
        <mxCell id="TNLpFWwESsY1as0Zczxs-10" value="" style="edgeStyle=orthogonalEdgeStyle;rounded=0;orthogonalLoop=1;jettySize=auto;html=1;" edge="1" parent="WIyWlLk6GJQsqaUBKTNV-1" source="TNLpFWwESsY1as0Zczxs-2" target="TNLpFWwESsY1as0Zczxs-9">
          <mxGeometry relative="1" as="geometry" />
        </mxCell>
        <mxCell id="TNLpFWwESsY1as0Zczxs-11" value="YES" style="edgeLabel;html=1;align=center;verticalAlign=middle;resizable=0;points=[];" vertex="1" connectable="0" parent="TNLpFWwESsY1as0Zczxs-10">
          <mxGeometry x="-0.2667" y="1" relative="1" as="geometry">
            <mxPoint as="offset" />
          </mxGeometry>
        </mxCell>
        <mxCell id="TNLpFWwESsY1as0Zczxs-2" value="is registered?" style="rhombus;whiteSpace=wrap;html=1;shadow=0;fontFamily=Helvetica;fontSize=12;align=center;strokeWidth=1;spacing=6;spacingTop=-4;" vertex="1" parent="WIyWlLk6GJQsqaUBKTNV-1">
          <mxGeometry x="170" y="90" width="100" height="80" as="geometry" />
        </mxCell>
        <mxCell id="TNLpFWwESsY1as0Zczxs-28" value="" style="edgeStyle=orthogonalEdgeStyle;rounded=0;orthogonalLoop=1;jettySize=auto;html=1;" edge="1" parent="WIyWlLk6GJQsqaUBKTNV-1" source="TNLpFWwESsY1as0Zczxs-5" target="TNLpFWwESsY1as0Zczxs-27">
          <mxGeometry relative="1" as="geometry" />
        </mxCell>
        <mxCell id="TNLpFWwESsY1as0Zczxs-5" value="offer to register" style="whiteSpace=wrap;html=1;shadow=0;strokeWidth=1;spacing=6;spacingTop=-4;" vertex="1" parent="WIyWlLk6GJQsqaUBKTNV-1">
          <mxGeometry x="340" y="100" width="120" height="60" as="geometry" />
        </mxCell>
        <mxCell id="TNLpFWwESsY1as0Zczxs-13" value="" style="edgeStyle=orthogonalEdgeStyle;rounded=0;orthogonalLoop=1;jettySize=auto;html=1;" edge="1" parent="WIyWlLk6GJQsqaUBKTNV-1" source="TNLpFWwESsY1as0Zczxs-9" target="TNLpFWwESsY1as0Zczxs-12">
          <mxGeometry relative="1" as="geometry" />
        </mxCell>
        <mxCell id="TNLpFWwESsY1as0Zczxs-9" value="offer login" style="whiteSpace=wrap;html=1;shadow=0;strokeWidth=1;spacing=6;spacingTop=-4;" vertex="1" parent="WIyWlLk6GJQsqaUBKTNV-1">
          <mxGeometry x="160" y="220" width="120" height="60" as="geometry" />
        </mxCell>
        <mxCell id="TNLpFWwESsY1as0Zczxs-17" value="" style="edgeStyle=orthogonalEdgeStyle;rounded=0;orthogonalLoop=1;jettySize=auto;html=1;" edge="1" parent="WIyWlLk6GJQsqaUBKTNV-1" source="TNLpFWwESsY1as0Zczxs-12" target="TNLpFWwESsY1as0Zczxs-5">
          <mxGeometry relative="1" as="geometry">
            <mxPoint x="330" y="340" as="targetPoint" />
          </mxGeometry>
        </mxCell>
        <mxCell id="TNLpFWwESsY1as0Zczxs-18" value="NO" style="edgeLabel;html=1;align=center;verticalAlign=middle;resizable=0;points=[];" vertex="1" connectable="0" parent="TNLpFWwESsY1as0Zczxs-17">
          <mxGeometry x="-0.084" y="1" relative="1" as="geometry">
            <mxPoint x="-89" y="9" as="offset" />
          </mxGeometry>
        </mxCell>
        <mxCell id="TNLpFWwESsY1as0Zczxs-20" value="" style="edgeStyle=orthogonalEdgeStyle;rounded=0;orthogonalLoop=1;jettySize=auto;html=1;" edge="1" parent="WIyWlLk6GJQsqaUBKTNV-1" source="TNLpFWwESsY1as0Zczxs-12" target="TNLpFWwESsY1as0Zczxs-19">
          <mxGeometry relative="1" as="geometry" />
        </mxCell>
        <mxCell id="TNLpFWwESsY1as0Zczxs-21" value="YES" style="edgeLabel;html=1;align=center;verticalAlign=middle;resizable=0;points=[];" vertex="1" connectable="0" parent="TNLpFWwESsY1as0Zczxs-20">
          <mxGeometry x="-0.4889" y="-1" relative="1" as="geometry">
            <mxPoint as="offset" />
          </mxGeometry>
        </mxCell>
        <mxCell id="TNLpFWwESsY1as0Zczxs-12" value="is logged in ?" style="rhombus;whiteSpace=wrap;html=1;shadow=0;strokeWidth=1;spacing=6;spacingTop=-4;" vertex="1" parent="WIyWlLk6GJQsqaUBKTNV-1">
          <mxGeometry x="175" y="300" width="90" height="80" as="geometry" />
        </mxCell>
        <mxCell id="TNLpFWwESsY1as0Zczxs-48" value="" style="edgeStyle=orthogonalEdgeStyle;rounded=0;orthogonalLoop=1;jettySize=auto;html=1;exitX=0;exitY=0.5;exitDx=0;exitDy=0;" edge="1" parent="WIyWlLk6GJQsqaUBKTNV-1" source="TNLpFWwESsY1as0Zczxs-57" target="TNLpFWwESsY1as0Zczxs-47">
          <mxGeometry relative="1" as="geometry">
            <Array as="points">
              <mxPoint x="270" y="585" />
              <mxPoint x="270" y="580" />
            </Array>
          </mxGeometry>
        </mxCell>
        <mxCell id="TNLpFWwESsY1as0Zczxs-58" value="NO" style="edgeLabel;html=1;align=center;verticalAlign=middle;resizable=0;points=[];" vertex="1" connectable="0" parent="TNLpFWwESsY1as0Zczxs-48">
          <mxGeometry x="-0.7016" y="-3" relative="1" as="geometry">
            <mxPoint x="-13" y="3" as="offset" />
          </mxGeometry>
        </mxCell>
        <mxCell id="TNLpFWwESsY1as0Zczxs-60" style="edgeStyle=orthogonalEdgeStyle;rounded=0;orthogonalLoop=1;jettySize=auto;html=1;entryX=0.5;entryY=0;entryDx=0;entryDy=0;" edge="1" parent="WIyWlLk6GJQsqaUBKTNV-1" source="TNLpFWwESsY1as0Zczxs-19" target="TNLpFWwESsY1as0Zczxs-57">
          <mxGeometry relative="1" as="geometry" />
        </mxCell>
        <mxCell id="TNLpFWwESsY1as0Zczxs-19" value="go to user dashboard&lt;br&gt;for this fetch:&lt;br&gt;&amp;nbsp;the user level + info + tenantId + permitted projects to see and modify" style="whiteSpace=wrap;html=1;shadow=0;strokeWidth=1;spacing=6;spacingTop=-4;" vertex="1" parent="WIyWlLk6GJQsqaUBKTNV-1">
          <mxGeometry x="110" y="430" width="220" height="90" as="geometry" />
        </mxCell>
        <mxCell id="TNLpFWwESsY1as0Zczxs-30" value="NO" style="edgeStyle=orthogonalEdgeStyle;rounded=0;orthogonalLoop=1;jettySize=auto;html=1;" edge="1" parent="WIyWlLk6GJQsqaUBKTNV-1" source="TNLpFWwESsY1as0Zczxs-27" target="TNLpFWwESsY1as0Zczxs-29">
          <mxGeometry relative="1" as="geometry" />
        </mxCell>
        <mxCell id="TNLpFWwESsY1as0Zczxs-32" value="" style="edgeStyle=orthogonalEdgeStyle;rounded=0;orthogonalLoop=1;jettySize=auto;html=1;" edge="1" parent="WIyWlLk6GJQsqaUBKTNV-1" source="TNLpFWwESsY1as0Zczxs-27" target="TNLpFWwESsY1as0Zczxs-31">
          <mxGeometry relative="1" as="geometry" />
        </mxCell>
        <mxCell id="TNLpFWwESsY1as0Zczxs-33" value="YES" style="edgeLabel;html=1;align=center;verticalAlign=middle;resizable=0;points=[];" vertex="1" connectable="0" parent="TNLpFWwESsY1as0Zczxs-32">
          <mxGeometry x="-0.2364" y="-3" relative="1" as="geometry">
            <mxPoint as="offset" />
          </mxGeometry>
        </mxCell>
        <mxCell id="TNLpFWwESsY1as0Zczxs-27" value="is new Tenant&lt;br&gt;company ?" style="rhombus;whiteSpace=wrap;html=1;" vertex="1" parent="WIyWlLk6GJQsqaUBKTNV-1">
          <mxGeometry x="480" y="90" width="110" height="80" as="geometry" />
        </mxCell>
        <mxCell id="TNLpFWwESsY1as0Zczxs-35" value="" style="edgeStyle=orthogonalEdgeStyle;rounded=0;orthogonalLoop=1;jettySize=auto;html=1;" edge="1" parent="WIyWlLk6GJQsqaUBKTNV-1" source="TNLpFWwESsY1as0Zczxs-29" target="TNLpFWwESsY1as0Zczxs-34">
          <mxGeometry relative="1" as="geometry" />
        </mxCell>
        <mxCell id="TNLpFWwESsY1as0Zczxs-29" value="ask for TenantID" style="whiteSpace=wrap;html=1;" vertex="1" parent="WIyWlLk6GJQsqaUBKTNV-1">
          <mxGeometry x="630" y="100" width="120" height="60" as="geometry" />
        </mxCell>
        <mxCell id="TNLpFWwESsY1as0Zczxs-31" value="get data and generate a unique TenantID" style="whiteSpace=wrap;html=1;" vertex="1" parent="WIyWlLk6GJQsqaUBKTNV-1">
          <mxGeometry x="475" y="210" width="120" height="60" as="geometry" />
        </mxCell>
        <mxCell id="TNLpFWwESsY1as0Zczxs-37" value="" style="edgeStyle=orthogonalEdgeStyle;rounded=0;orthogonalLoop=1;jettySize=auto;html=1;" edge="1" parent="WIyWlLk6GJQsqaUBKTNV-1" source="TNLpFWwESsY1as0Zczxs-34" target="TNLpFWwESsY1as0Zczxs-36">
          <mxGeometry relative="1" as="geometry" />
        </mxCell>
        <mxCell id="TNLpFWwESsY1as0Zczxs-34" value="Send Data,&lt;br&gt;Inform THAT Tenat&#39;s Admin" style="whiteSpace=wrap;html=1;" vertex="1" parent="WIyWlLk6GJQsqaUBKTNV-1">
          <mxGeometry x="630" y="180" width="120" height="60" as="geometry" />
        </mxCell>
        <mxCell id="TNLpFWwESsY1as0Zczxs-39" value="" style="edgeStyle=orthogonalEdgeStyle;rounded=0;orthogonalLoop=1;jettySize=auto;html=1;" edge="1" parent="WIyWlLk6GJQsqaUBKTNV-1" source="TNLpFWwESsY1as0Zczxs-36" target="TNLpFWwESsY1as0Zczxs-38">
          <mxGeometry relative="1" as="geometry" />
        </mxCell>
        <mxCell id="TNLpFWwESsY1as0Zczxs-36" value="Display status to Demander (visitor)" style="whiteSpace=wrap;html=1;" vertex="1" parent="WIyWlLk6GJQsqaUBKTNV-1">
          <mxGeometry x="650" y="260" width="120" height="60" as="geometry" />
        </mxCell>
        <mxCell id="TNLpFWwESsY1as0Zczxs-41" value="" style="edgeStyle=orthogonalEdgeStyle;rounded=0;orthogonalLoop=1;jettySize=auto;html=1;" edge="1" parent="WIyWlLk6GJQsqaUBKTNV-1" source="TNLpFWwESsY1as0Zczxs-38" target="TNLpFWwESsY1as0Zczxs-40">
          <mxGeometry relative="1" as="geometry" />
        </mxCell>
        <mxCell id="TNLpFWwESsY1as0Zczxs-38" value="That Tenant&#39;s DB&amp;nbsp;&lt;br&gt;&quot;waiting_approvals&quot; property will be updated&lt;br&gt;OR&amp;nbsp;&lt;br&gt;Users property will be updated with &quot;WAITING APPROVE&quot; value" style="whiteSpace=wrap;html=1;" vertex="1" parent="WIyWlLk6GJQsqaUBKTNV-1">
          <mxGeometry x="595" y="360" width="120" height="310" as="geometry" />
        </mxCell>
        <mxCell id="TNLpFWwESsY1as0Zczxs-45" style="edgeStyle=orthogonalEdgeStyle;rounded=0;orthogonalLoop=1;jettySize=auto;html=1;" edge="1" parent="WIyWlLk6GJQsqaUBKTNV-1">
          <mxGeometry relative="1" as="geometry">
            <mxPoint x="760" y="320" as="targetPoint" />
            <mxPoint x="710" y="730" as="sourcePoint" />
            <Array as="points">
              <mxPoint x="761" y="730" />
              <mxPoint x="761" y="320" />
            </Array>
          </mxGeometry>
        </mxCell>
        <mxCell id="TNLpFWwESsY1as0Zczxs-46" value="NO" style="edgeLabel;html=1;align=center;verticalAlign=middle;resizable=0;points=[];" vertex="1" connectable="0" parent="TNLpFWwESsY1as0Zczxs-45">
          <mxGeometry x="-0.9665" y="2" relative="1" as="geometry">
            <mxPoint x="12" y="2" as="offset" />
          </mxGeometry>
        </mxCell>
        <mxCell id="TNLpFWwESsY1as0Zczxs-55" style="edgeStyle=orthogonalEdgeStyle;rounded=0;orthogonalLoop=1;jettySize=auto;html=1;entryX=1;entryY=0.75;entryDx=0;entryDy=0;" edge="1" parent="WIyWlLk6GJQsqaUBKTNV-1" source="TNLpFWwESsY1as0Zczxs-40" target="TNLpFWwESsY1as0Zczxs-19">
          <mxGeometry relative="1" as="geometry">
            <Array as="points">
              <mxPoint x="560" y="730" />
              <mxPoint x="560" y="498" />
            </Array>
          </mxGeometry>
        </mxCell>
        <mxCell id="TNLpFWwESsY1as0Zczxs-56" value="YES" style="edgeLabel;html=1;align=center;verticalAlign=middle;resizable=0;points=[];" vertex="1" connectable="0" parent="TNLpFWwESsY1as0Zczxs-55">
          <mxGeometry x="-0.8685" y="-4" relative="1" as="geometry">
            <mxPoint as="offset" />
          </mxGeometry>
        </mxCell>
        <mxCell id="TNLpFWwESsY1as0Zczxs-40" value="is approved by Admin?" style="rhombus;whiteSpace=wrap;html=1;" vertex="1" parent="WIyWlLk6GJQsqaUBKTNV-1">
          <mxGeometry x="630" y="690" width="80" height="80" as="geometry" />
        </mxCell>
        <mxCell id="TNLpFWwESsY1as0Zczxs-50" value="" style="edgeStyle=orthogonalEdgeStyle;rounded=0;orthogonalLoop=1;jettySize=auto;html=1;" edge="1" parent="WIyWlLk6GJQsqaUBKTNV-1" source="TNLpFWwESsY1as0Zczxs-47" target="TNLpFWwESsY1as0Zczxs-49">
          <mxGeometry relative="1" as="geometry" />
        </mxCell>
        <mxCell id="TNLpFWwESsY1as0Zczxs-51" value="YES" style="edgeLabel;html=1;align=center;verticalAlign=middle;resizable=0;points=[];" vertex="1" connectable="0" parent="TNLpFWwESsY1as0Zczxs-50">
          <mxGeometry x="-0.7727" y="-2" relative="1" as="geometry">
            <mxPoint x="2" y="6" as="offset" />
          </mxGeometry>
        </mxCell>
        <mxCell id="TNLpFWwESsY1as0Zczxs-53" value="" style="edgeStyle=orthogonalEdgeStyle;rounded=0;orthogonalLoop=1;jettySize=auto;html=1;" edge="1" parent="WIyWlLk6GJQsqaUBKTNV-1" source="TNLpFWwESsY1as0Zczxs-47" target="TNLpFWwESsY1as0Zczxs-52">
          <mxGeometry relative="1" as="geometry" />
        </mxCell>
        <mxCell id="TNLpFWwESsY1as0Zczxs-54" value="NO" style="edgeLabel;html=1;align=center;verticalAlign=middle;resizable=0;points=[];" vertex="1" connectable="0" parent="TNLpFWwESsY1as0Zczxs-53">
          <mxGeometry x="-0.125" y="1" relative="1" as="geometry">
            <mxPoint as="offset" />
          </mxGeometry>
        </mxCell>
        <mxCell id="TNLpFWwESsY1as0Zczxs-47" value="is Tenant Admin ?" style="rhombus;whiteSpace=wrap;html=1;shadow=0;strokeWidth=1;spacing=6;spacingTop=-4;" vertex="1" parent="WIyWlLk6GJQsqaUBKTNV-1">
          <mxGeometry x="160" y="541" width="90" height="88" as="geometry" />
        </mxCell>
        <mxCell id="TNLpFWwESsY1as0Zczxs-49" value="Tenant Admin API-CRUD, DB and data" style="whiteSpace=wrap;html=1;shadow=0;strokeWidth=1;spacing=6;spacingTop=-4;" vertex="1" parent="WIyWlLk6GJQsqaUBKTNV-1">
          <mxGeometry x="167.5" y="670" width="75" height="60" as="geometry" />
        </mxCell>
        <mxCell id="TNLpFWwESsY1as0Zczxs-52" value="Is Tenant&lt;br&gt;User?" style="rhombus;whiteSpace=wrap;html=1;shadow=0;strokeWidth=1;spacing=6;spacingTop=-4;" vertex="1" parent="WIyWlLk6GJQsqaUBKTNV-1">
          <mxGeometry x="30" y="542" width="90" height="88" as="geometry" />
        </mxCell>
        <mxCell id="TNLpFWwESsY1as0Zczxs-62" value="" style="edgeStyle=orthogonalEdgeStyle;rounded=0;orthogonalLoop=1;jettySize=auto;html=1;" edge="1" parent="WIyWlLk6GJQsqaUBKTNV-1" source="TNLpFWwESsY1as0Zczxs-57" target="TNLpFWwESsY1as0Zczxs-61">
          <mxGeometry relative="1" as="geometry" />
        </mxCell>
        <mxCell id="TNLpFWwESsY1as0Zczxs-63" value="YES" style="edgeLabel;html=1;align=center;verticalAlign=middle;resizable=0;points=[];" vertex="1" connectable="0" parent="TNLpFWwESsY1as0Zczxs-62">
          <mxGeometry x="-0.2691" relative="1" as="geometry">
            <mxPoint as="offset" />
          </mxGeometry>
        </mxCell>
        <mxCell id="TNLpFWwESsY1as0Zczxs-57" value="is Super User?" style="rhombus;whiteSpace=wrap;html=1;" vertex="1" parent="WIyWlLk6GJQsqaUBKTNV-1">
          <mxGeometry x="290" y="545" width="80" height="80" as="geometry" />
        </mxCell>
        <mxCell id="TNLpFWwESsY1as0Zczxs-61" value="Super User&lt;br&gt;Admin API&lt;br&gt;CRUD, DB&amp;nbsp;&lt;br&gt;and data" style="whiteSpace=wrap;html=1;" vertex="1" parent="WIyWlLk6GJQsqaUBKTNV-1">
          <mxGeometry x="265" y="670" width="120" height="60" as="geometry" />
        </mxCell>
        <mxCell id="TNLpFWwESsY1as0Zczxs-64" value="" style="edgeStyle=orthogonalEdgeStyle;rounded=0;orthogonalLoop=1;jettySize=auto;html=1;" edge="1" parent="WIyWlLk6GJQsqaUBKTNV-1" target="TNLpFWwESsY1as0Zczxs-66">
          <mxGeometry relative="1" as="geometry">
            <mxPoint x="75" y="625" as="sourcePoint" />
          </mxGeometry>
        </mxCell>
        <mxCell id="TNLpFWwESsY1as0Zczxs-65" value="YES" style="edgeLabel;html=1;align=center;verticalAlign=middle;resizable=0;points=[];" vertex="1" connectable="0" parent="TNLpFWwESsY1as0Zczxs-64">
          <mxGeometry x="-0.7727" y="-2" relative="1" as="geometry">
            <mxPoint x="2" y="6" as="offset" />
          </mxGeometry>
        </mxCell>
        <mxCell id="TNLpFWwESsY1as0Zczxs-66" value="User API CRUD, DB&lt;br&gt;and data" style="whiteSpace=wrap;html=1;shadow=0;strokeWidth=1;spacing=6;spacingTop=-4;" vertex="1" parent="WIyWlLk6GJQsqaUBKTNV-1">
          <mxGeometry x="35" y="670" width="75" height="60" as="geometry" />
        </mxCell>
      </root>
    </mxGraphModel>
  </diagram>
</mxfile>
